{
    "asset": {
        "copyright": "2019 (c) Adobe Inc.",
        "generator": "Adobe Dimension - 0897bb3786688dd8ac0e16e7ca439aa83b5dca11",
        "version": "2.0"
    },
    "accessors": [
        {
            "bufferView": 0,
            "componentType": 5126,
            "count": 1182534,
            "type": "VEC3",
            "max": [
                37.654422760009769,
                5.194123268127441,
                15.76682186126709
            ],
            "min": [
                -36.744651794433597,
                -5.205963611602783,
                -0.03771231323480606
            ]
        },
        {
            "bufferView": 1,
            "componentType": 5126,
            "count": 1182534,
            "type": "VEC3"
        },
        {
            "bufferView": 2,
            "componentType": 5126,
            "count": 1182534,
            "type": "VEC2"
        },
        {
            "bufferView": 3,
            "componentType": 5125,
            "count": 84240,
            "type": "SCALAR",
            "max": [
                53938.0
            ],
            "min": [
                0.0
            ]
        },
        {
            "bufferView": 4,
            "componentType": 5125,
            "count": 27051,
            "type": "SCALAR",
            "max": [
                71165.0
            ],
            "min": [
                53939.0
            ]
        },
        {
            "bufferView": 5,
            "componentType": 5125,
            "count": 696459,
            "type": "SCALAR",
            "max": [
                496633.0
            ],
            "min": [
                71166.0
            ]
        },
        {
            "bufferView": 6,
            "componentType": 5125,
            "count": 315474,
            "type": "SCALAR",
            "max": [
                692437.0
            ],
            "min": [
                496634.0
            ]
        },
        {
            "bufferView": 7,
            "componentType": 5125,
            "count": 785421,
            "type": "SCALAR",
            "max": [
                1144310.0
            ],
            "min": [
                692438.0
            ]
        },
        {
            "bufferView": 8,
            "componentType": 5125,
            "count": 8403,
            "type": "SCALAR",
            "max": [
                1149975.0
            ],
            "min": [
                1144311.0
            ]
        },
        {
            "bufferView": 9,
            "componentType": 5125,
            "count": 6630,
            "type": "SCALAR",
            "max": [
                1154381.0
            ],
            "min": [
                1149976.0
            ]
        },
        {
            "bufferView": 10,
            "componentType": 5125,
            "count": 19626,
            "type": "SCALAR",
            "max": [
                1166951.0
            ],
            "min": [
                1154382.0
            ]
        },
        {
            "bufferView": 11,
            "componentType": 5125,
            "count": 10794,
            "type": "SCALAR",
            "max": [
                1173561.0
            ],
            "min": [
                1166952.0
            ]
        },
        {
            "bufferView": 12,
            "componentType": 5125,
            "count": 348,
            "type": "SCALAR",
            "max": [
                1173793.0
            ],
            "min": [
                1173562.0
            ]
        },
        {
            "bufferView": 13,
            "componentType": 5125,
            "count": 396,
            "type": "SCALAR",
            "max": [
                1174057.0
            ],
            "min": [
                1173794.0
            ]
        },
        {
            "bufferView": 14,
            "componentType": 5125,
            "count": 408,
            "type": "SCALAR",
            "max": [
                1174329.0
            ],
            "min": [
                1174058.0
            ]
        },
        {
            "bufferView": 15,
            "componentType": 5125,
            "count": 1506,
            "type": "SCALAR",
            "max": [
                1175081.0
            ],
            "min": [
                1174330.0
            ]
        },
        {
            "bufferView": 16,
            "componentType": 5125,
            "count": 12813,
            "type": "SCALAR",
            "max": [
                1182341.0
            ],
            "min": [
                1175082.0
            ]
        },
        {
            "bufferView": 17,
            "componentType": 5125,
            "count": 288,
            "type": "SCALAR",
            "max": [
                1182533.0
            ],
            "min": [
                1182342.0
            ]
        }
    ],
    "bufferViews": [
        {
            "buffer": 0,
            "byteOffset": 0,
            "byteLength": 14190408,
            "target": 34962
        },
        {
            "buffer": 0,
            "byteOffset": 14190408,
            "byteLength": 14190408,
            "target": 34962
        },
        {
            "buffer": 0,
            "byteOffset": 28380816,
            "byteLength": 9460272,
            "target": 34962
        },
        {
            "buffer": 0,
            "byteOffset": 37841088,
            "byteLength": 336960,
            "target": 34963
        },
        {
            "buffer": 0,
            "byteOffset": 38178048,
            "byteLength": 108204,
            "target": 34963
        },
        {
            "buffer": 0,
            "byteOffset": 38286252,
            "byteLength": 2785836,
            "target": 34963
        },
        {
            "buffer": 0,
            "byteOffset": 41072088,
            "byteLength": 1261896,
            "target": 34963
        },
        {
            "buffer": 0,
            "byteOffset": 42333984,
            "byteLength": 3141684,
            "target": 34963
        },
        {
            "buffer": 0,
            "byteOffset": 45475668,
            "byteLength": 33612,
            "target": 34963
        },
        {
            "buffer": 0,
            "byteOffset": 45509280,
            "byteLength": 26520,
            "target": 34963
        },
        {
            "buffer": 0,
            "byteOffset": 45535800,
            "byteLength": 78504,
            "target": 34963
        },
        {
            "buffer": 0,
            "byteOffset": 45614304,
            "byteLength": 43176,
            "target": 34963
        },
        {
            "buffer": 0,
            "byteOffset": 45657480,
            "byteLength": 1392,
            "target": 34963
        },
        {
            "buffer": 0,
            "byteOffset": 45658872,
            "byteLength": 1584,
            "target": 34963
        },
        {
            "buffer": 0,
            "byteOffset": 45660456,
            "byteLength": 1632,
            "target": 34963
        },
        {
            "buffer": 0,
            "byteOffset": 45662088,
            "byteLength": 6024,
            "target": 34963
        },
        {
            "buffer": 0,
            "byteOffset": 45668112,
            "byteLength": 51252,
            "target": 34963
        },
        {
            "buffer": 0,
            "byteOffset": 45719364,
            "byteLength": 1152,
            "target": 34963
        }
    ],
    "buffers": [
        {
            "byteLength": 45720516,
            "uri": "名称未設定_binary.bin"
        }
    ],
    "cameras": [
        {
            "perspective": {
                "znear": 0.00006123095226939768,
                "yfov": 0.6024156808853149,
                "zfar": 3.3677022457122804,
                "aspectRatio": 1.3333333730697632
            },
            "type": "perspective",
            "name": "render_camera"
        }
    ],
    "materials": [
        {
            "pbrMetallicRoughness": {
                "baseColorFactor": [
                    0.5332767963409424,
                    0.7379109263420105,
                    0.8713662624359131,
                    1.0
                ]
            },
            "name": "Glass"
        },
        {
            "pbrMetallicRoughness": {
                "baseColorFactor": [
                    0.3662530183792114,
                    0.36130672693252566,
                    0.3712373673915863,
                    1.0
                ]
            },
            "name": "Gray"
        },
        {
            "pbrMetallicRoughness": {
                "baseColorFactor": [
                    0.6795421838760376,
                    0.5583403706550598,
                    0.3185468316078186,
                    1.0
                ]
            },
            "name": "Tan"
        },
        {
            "pbrMetallicRoughness": {
                "baseColorFactor": [
                    0.015208560973405838,
                    0.015208560973405838,
                    0.015208560973405838,
                    1.0
                ]
            },
            "name": "Black"
        },
        {
            "pbrMetallicRoughness": {
                "baseColorFactor": [
                    0.8879239559173584,
                    0.8962691426277161,
                    0.8879239559173584,
                    1.0
                ]
            },
            "name": "White"
        },
        {
            "pbrMetallicRoughness": {
                "baseColorFactor": [
                    0.7011021375656128,
                    0.23455096781253816,
                    0.051269300282001498,
                    1.0
                ]
            },
            "name": "Orange"
        },
        {
            "pbrMetallicRoughness": {
                "baseColorFactor": [
                    0.9734445810317993,
                    0.9734445810317993,
                    0.9734445810317993,
                    1.0
                ]
            },
            "name": "Glass w"
        },
        {
            "pbrMetallicRoughness": {
                "baseColorFactor": [
                    0.14126352965831757,
                    0.051269300282001498,
                    0.02028851956129074,
                    1.0
                ]
            },
            "name": "Brown"
        },
        {
            "pbrMetallicRoughness": {
                "baseColorFactor": [
                    0.13843151926994325,
                    0.5457247495651245,
                    0.7605254650115967,
                    1.0
                ]
            },
            "name": "Material_322"
        },
        {
            "pbrMetallicRoughness": {
                "baseColorFactor": [
                    0.15592683851718903,
                    0.3185468316078186,
                    0.5840780138969421,
                    1.0
                ]
            },
            "name": "Material_73"
        },
        {
            "pbrMetallicRoughness": {
                "baseColorFactor": [
                    0.06124614179134369,
                    0.3277779221534729,
                    0.5457247495651245,
                    1.0
                ]
            },
            "name": "Material_321"
        },
        {
            "pbrMetallicRoughness": {
                "baseColorFactor": [
                    0.00402468116953969,
                    0.14126352965831757,
                    0.4072399437427521,
                    1.0
                ]
            },
            "name": "Material_1"
        },
        {
            "pbrMetallicRoughness": {
                "baseColorFactor": [
                    0.19806934893131257,
                    0.467784583568573,
                    0.8069524765014648,
                    1.0
                ]
            },
            "name": "Glass blue"
        },
        {
            "pbrMetallicRoughness": {
                "baseColorFactor": [
                    0.552010715007782,
                    0.021219074726104738,
                    0.010960035026073456,
                    1.0
                ]
            },
            "name": "Red"
        },
        {
            "pbrMetallicRoughness": {
                "baseColorFactor": [
                    0.38132554292678835,
                    0.28314825892448428,
                    0.22322803735733033,
                    1.0
                ]
            },
            "name": "Glass brown"
        }
    ],
    "meshes": [
        {
            "name": "06241_3065.dat.001",
            "primitives": [
                {
                    "attributes": {
                        "POSITION": 0,
                        "NORMAL": 1,
                        "TEXCOORD_0": 2
                    },
                    "indices": 3,
                    "material": 0
                },
                {
                    "attributes": {
                        "TEXCOORD_0": 2,
                        "NORMAL": 1,
                        "POSITION": 0
                    },
                    "indices": 4,
                    "material": 1
                },
                {
                    "attributes": {
                        "POSITION": 0,
                        "NORMAL": 1,
                        "TEXCOORD_0": 2
                    },
                    "indices": 5,
                    "material": 2
                },
                {
                    "attributes": {
                        "POSITION": 0,
                        "NORMAL": 1,
                        "TEXCOORD_0": 2
                    },
                    "indices": 6,
                    "material": 3
                },
                {
                    "attributes": {
                        "TEXCOORD_0": 2,
                        "NORMAL": 1,
                        "POSITION": 0
                    },
                    "indices": 7,
                    "material": 4
                },
                {
                    "attributes": {
                        "TEXCOORD_0": 2,
                        "NORMAL": 1,
                        "POSITION": 0
                    },
                    "indices": 8,
                    "material": 5
                },
                {
                    "attributes": {
                        "TEXCOORD_0": 2,
                        "NORMAL": 1,
                        "POSITION": 0
                    },
                    "indices": 9,
                    "material": 6
                },
                {
                    "attributes": {
                        "TEXCOORD_0": 2,
                        "NORMAL": 1,
                        "POSITION": 0
                    },
                    "indices": 10,
                    "material": 7
                },
                {
                    "attributes": {
                        "POSITION": 0,
                        "NORMAL": 1,
                        "TEXCOORD_0": 2
                    },
                    "indices": 11,
                    "material": 8
                },
                {
                    "attributes": {
                        "POSITION": 0,
                        "NORMAL": 1,
                        "TEXCOORD_0": 2
                    },
                    "indices": 12,
                    "material": 9
                },
                {
                    "attributes": {
                        "POSITION": 0,
                        "NORMAL": 1,
                        "TEXCOORD_0": 2
                    },
                    "indices": 13,
                    "material": 10
                },
                {
                    "attributes": {
                        "POSITION": 0,
                        "NORMAL": 1,
                        "TEXCOORD_0": 2
                    },
                    "indices": 14,
                    "material": 11
                },
                {
                    "attributes": {
                        "POSITION": 0,
                        "NORMAL": 1,
                        "TEXCOORD_0": 2
                    },
                    "indices": 15,
                    "material": 12
                },
                {
                    "attributes": {
                        "POSITION": 0,
                        "NORMAL": 1,
                        "TEXCOORD_0": 2
                    },
                    "indices": 16,
                    "material": 13
                },
                {
                    "attributes": {
                        "POSITION": 0,
                        "NORMAL": 1,
                        "TEXCOORD_0": 2
                    },
                    "indices": 17,
                    "material": 14
                }
            ]
        }
    ],
    "nodes": [
        {
            "translation": [
                2.220815896987915,
                1.4004769325256348,
                -2.5702149868011476
            ],
            "rotation": [
                -0.05095324292778969,
                0.9348433613777161,
                0.14987532794475556,
                0.3178192675113678
            ],
            "scale": [
                1.000000238418579,
                1.0,
                1.000000238418579
            ],
            "camera": 0,
            "name": "render_camera_n3d"
        },
        {
            "translation": [
                -0.0185581985861063,
                0.0,
                0.0
            ],
            "rotation": [
                -0.7071068286895752,
                0.0,
                0.0,
                0.7071067094802856
            ],
            "scale": [
                0.03988105058670044,
                0.03988105058670044,
                0.03988105058670044
            ],
            "mesh": 0,
            "name": "06241_3065.dat.001"
        }
    ],
    "scenes": [
        {
            "nodes": [
                0,
                1
            ],
            "name": "scene"
        }
    ],
    "scene": 0,
    "extensions": {
        "KHR_xmp": {
            "packets": [
                {
                    "dc:date": "2020-05-07T12:11:50.603+09:00",
                    "dc:format": "model/gltf+json",
                    "dc:title": "QE.dn",
                    "xmp:CreatorTool": "Adobe Dimension"
                }
            ]
        }
    },
    "extensionsUsed": [
        "KHR_xmp"
    ]
}